<svg width="32" height="32" viewBox="0 0 32 32" fill="none" xmlns="http://www.w3.org/2000/svg">
<path d="M18.3925 16.0563L14.9912 12.6556C14.9216 12.5857 14.8388 12.5302 14.7476 12.4924C14.6564 12.4545 14.5587 12.435 14.46 12.435C14.3613 12.435 14.2635 12.4545 14.1724 12.4924C14.0812 12.5302 13.9984 12.5857 13.9287 12.6556L0.778111 25.0625C0.705185 25.1313 0.64678 25.2139 0.606346 25.3056C0.565911 25.3973 0.544268 25.4962 0.542695 25.5964C0.541122 25.6967 0.559651 25.7962 0.597187 25.8891C0.634723 25.982 0.690504 26.0665 0.761236 26.1375L4.88936 30.28C4.96023 30.3511 5.04464 30.4072 5.13759 30.4451C5.23055 30.483 5.33016 30.5018 5.43053 30.5004C5.53089 30.4991 5.62996 30.4776 5.72188 30.4373C5.81379 30.397 5.89667 30.3386 5.96561 30.2656L18.3912 17.1181C18.4611 17.0485 18.5166 16.9659 18.5545 16.8748C18.5925 16.7837 18.612 16.6861 18.6121 16.5875C18.6123 16.4888 18.5929 16.3911 18.5552 16.3C18.5175 16.2088 18.4622 16.126 18.3925 16.0563ZM31.2081 12.4581L28.465 9.73438C28.3395 9.60933 28.1905 9.51038 28.0266 9.44323C27.8627 9.37607 27.6871 9.34205 27.51 9.34313C27.223 9.3434 26.9433 9.43392 26.7106 9.60188C26.7106 9.57501 26.7144 9.54876 26.7162 9.52563C26.7444 9.11938 26.7881 8.50563 26.3912 7.94938C25.9194 7.31338 25.4013 6.71301 24.8412 6.15313C24.8397 6.15131 24.8381 6.14964 24.8362 6.14813C24.0037 5.32813 22.1919 3.78376 19.4162 2.65188C18.3631 2.22013 17.2357 1.99867 16.0975 2.00001C14.125 2.00001 12.625 2.89001 12.0506 3.41751C11.485 3.93361 11.1141 4.6285 11 5.38563L12 6.00001C12 6.00001 12.5037 5.87501 12.8662 5.78813C13.245 5.70736 13.6335 5.68314 14.0194 5.71626C14.8437 5.78438 15.8187 6.19376 16.25 6.53438C16.9812 7.12251 17.3331 7.91501 17.3912 9.10251C17.4037 9.36688 16.7962 10.4369 15.8812 11.5925C15.8051 11.6886 15.767 11.8093 15.774 11.9316C15.781 12.054 15.8328 12.1695 15.9194 12.2563L18.755 15.0919C18.8458 15.1819 18.9677 15.2337 19.0956 15.2366C19.2235 15.2396 19.3476 15.1933 19.4425 15.1075C20.1969 14.42 21.3481 13.3575 21.6094 13.1956C22.09 12.9 22.4337 12.8431 22.5281 12.8331C22.773 12.8091 23.0194 12.861 23.2337 12.9819C23.2348 12.9926 23.2336 13.0034 23.2303 13.0136C23.227 13.0238 23.2215 13.0332 23.2144 13.0413L23.1006 13.1494L23.0819 13.1669C22.9562 13.2921 22.8565 13.441 22.7886 13.6049C22.7207 13.7688 22.6859 13.9445 22.6862 14.1219C22.6864 14.2993 22.7218 14.4749 22.7903 14.6386C22.8587 14.8023 22.9589 14.9508 23.085 15.0756L25.8319 17.8056C25.9255 17.8988 26.0523 17.951 26.1844 17.951C26.3165 17.951 26.4432 17.8988 26.5369 17.8056L31.2044 13.1681C31.2515 13.1219 31.289 13.0668 31.3147 13.006C31.3404 12.9452 31.3538 12.8799 31.3541 12.8139C31.3545 12.7479 31.3418 12.6825 31.3167 12.6214C31.2916 12.5604 31.2547 12.5049 31.2081 12.4581Z" fill="#F8F8F8"/>
</svg>
