<svg width="24" height="24" viewBox="0 0 24 24" fill="none" xmlns="http://www.w3.org/2000/svg">
<path d="M3.83301 4H8.32301L9.77001 7.618L7.44501 9.168C7.3081 9.25935 7.19584 9.38308 7.11822 9.52822C7.04059 9.67335 6.99999 9.83541 7.00001 10C7.00301 10.094 7.00001 10.001 7.00001 10.001V10.022C7.0006 10.0667 7.0026 10.1114 7.00601 10.156C7.01201 10.238 7.02201 10.349 7.04101 10.486C7.08001 10.756 7.15501 11.128 7.30101 11.566C7.59501 12.446 8.17101 13.585 9.29301 14.707C10.415 15.829 11.554 16.405 12.433 16.699C12.872 16.845 13.243 16.919 13.515 16.959C13.6685 16.9804 13.8231 16.9938 13.978 16.999L13.991 17H13.999C13.999 17 14.111 16.994 14 17C14.1857 16.9999 14.3676 16.9481 14.5255 16.8504C14.6834 16.7528 14.811 16.6131 14.894 16.447L15.564 15.107L20 15.847V20.167C17.889 20.472 12.187 20.773 7.70701 16.293C3.22701 11.813 3.52701 6.11 3.83301 4ZM9.07301 10.486L10.88 9.282C11.2618 9.02737 11.5443 8.64922 11.6803 8.21096C11.8163 7.77271 11.7975 7.30102 11.627 6.875L10.18 3.257C10.0315 2.88591 9.77525 2.56781 9.44425 2.34376C9.11325 2.11971 8.72271 1.99997 8.32301 2H3.78101C2.87201 2 2.01701 2.631 1.86801 3.617C1.52801 5.859 1.06701 12.481 6.29301 17.707C11.519 22.933 18.141 22.471 20.383 22.132C21.369 21.982 22 21.128 22 20.219V15.847C22.0001 15.3736 21.8322 14.9155 21.5262 14.5542C21.2202 14.1929 20.796 13.9519 20.329 13.874L15.893 13.135C15.4711 13.0646 15.0377 13.1313 14.6565 13.3253C14.2753 13.5193 13.9664 13.8304 13.775 14.213L13.429 14.906C13.3067 14.8759 13.1856 14.8408 13.066 14.801C12.446 14.595 11.585 14.171 10.707 13.293C9.82901 12.415 9.40501 11.554 9.19901 10.933C9.14982 10.7862 9.1081 10.637 9.07401 10.486H9.07301Z" fill="#252525"/>
</svg>
