<svg width="24" height="32" viewBox="0 0 24 32" fill="none" xmlns="http://www.w3.org/2000/svg">
<g clip-path="url(#clip0_1_803)">
<path d="M10.15 0.375C10.0562 0.15 9.8375 0 9.59375 0H8.40625C8.1625 0 7.9375 0.15 7.85 0.375L6.55625 3.60625C6.35625 4.10625 5.64375 4.10625 5.44375 3.60625L4.15 0.375C4.05625 0.15 3.8375 0 3.59375 0H3C1.34375 0 0 1.34375 0 3V16H24V3C24 1.34375 22.6562 0 21 0H14.4062C14.1625 0 13.9375 0.15 13.85 0.375L12.5562 3.60625C12.3562 4.10625 11.6438 4.10625 11.4438 3.60625L10.15 0.375ZM0 18V20C0 22.2062 1.79375 24 4 24H8V28C8 30.2062 9.79375 32 12 32C14.2063 32 16 30.2062 16 28V24H20C22.2062 24 24 22.2062 24 20V18H0ZM12 27C12.2652 27 12.5196 27.1054 12.7071 27.2929C12.8946 27.4804 13 27.7348 13 28C13 28.2652 12.8946 28.5196 12.7071 28.7071C12.5196 28.8946 12.2652 29 12 29C11.7348 29 11.4804 28.8946 11.2929 28.7071C11.1054 28.5196 11 28.2652 11 28C11 27.7348 11.1054 27.4804 11.2929 27.2929C11.4804 27.1054 11.7348 27 12 27Z" fill="#F8F8F8"/>
</g>
<defs>
<clipPath id="clip0_1_803">
<rect width="24" height="32" fill="white"/>
</clipPath>
</defs>
</svg>
