<svg width="32" height="32" viewBox="0 0 32 32" fill="none" xmlns="http://www.w3.org/2000/svg">
<path d="M5.33329 28C4.59996 28 3.9724 27.7391 3.45063 27.2173C2.92885 26.6955 2.66751 26.0675 2.66663 25.3333V10.6667C2.66663 9.93332 2.92796 9.30577 3.45063 8.78399C3.97329 8.26221 4.60085 8.00088 5.33329 7.99999H10.6666V5.33332C10.6666 4.59999 10.928 3.97243 11.4506 3.45066C11.9733 2.92888 12.6008 2.66755 13.3333 2.66666H18.6666C19.4 2.66666 20.028 2.92799 20.5506 3.45066C21.0733 3.97332 21.3342 4.60088 21.3333 5.33332V7.99999H26.6666C27.4 7.99999 28.028 8.26132 28.5506 8.78399C29.0733 9.30666 29.3342 9.93421 29.3333 10.6667V25.3333C29.3333 26.0667 29.0724 26.6947 28.5506 27.2173C28.0288 27.74 27.4008 28.0009 26.6666 28H5.33329ZM13.3333 7.99999H18.6666V5.33332H13.3333V7.99999Z" fill="#F8F8F8"/>
</svg>
